<?xml version="1.0" encoding="utf-8"?>
<!-- Generator: Adobe Illustrator 18.0.0, SVG Export Plug-In . SVG Version: 6.00 Build 0)  -->
<!DOCTYPE svg PUBLIC "-//W3C//DTD SVG 1.1//EN" "http://www.w3.org/Graphics/SVG/1.1/DTD/svg11.dtd">
<svg version="1.1" id="Layer_1" xmlns="http://www.w3.org/2000/svg" xmlns:xlink="http://www.w3.org/1999/xlink" x="0px" y="0px"
	 width="100px" height="100px" viewBox="0 0 100 100" enable-background="new 0 0 100 100" xml:space="preserve">
<g>
	
		<linearGradient id="SVGID_1_" gradientUnits="userSpaceOnUse" x1="50.05" y1="15.8459" x2="50.05" y2="84.1937" gradientTransform="matrix(1 0 0 -1 0 100)">
		<stop  offset="0" style="stop-color:#F8972F"/>
		<stop  offset="1" style="stop-color:#F36D24"/>
	</linearGradient>
	<path fill="url(#SVGID_1_)" d="M76,36.7H56.9h-2.8H46h-2.8H24.1c-2,0-3.6,1.6-3.6,3.6v7.3c0,2,1.6,3.6,3.6,3.6h0.8v28.7
		c0,2.1,1.7,3.8,3.8,3.8h14.5H46h8h2.8h14.5c2.1,0,3.8-1.7,3.8-3.8V51.2H76c2,0,3.6-1.6,3.6-3.6v-7.3C79.6,38.4,78,36.7,76,36.7z
		 M46,39.6h8v8.7v2.8V54c-1.3-0.5-2.6-0.7-4.1-0.7c-1.4,0-2.8,0.2-4.1,0.7v-2.8v-2.8L46,39.6L46,39.6z M54.8,73L54.8,73L54.8,73
		c-2.8,1.7-6.6,1.8-9.4,0l0,0c-2.7-1.6-4.4-4.6-4.4-7.8c0-3.2,1.7-6.1,4.4-7.8l0,0c2.8-1.7,6.6-1.7,9.4,0l0,0l0,0
		c2.8,1.6,4.4,4.6,4.4,7.8C59.1,68.5,57.5,71.4,54.8,73z M24.1,48.3c-0.4,0-0.7-0.4-0.7-0.7v-7.3c0-0.4,0.4-0.7,0.7-0.7h19.1v8.7
		H24.8H24.1z M43.1,80.9H28.6c-0.6,0-1-0.4-1-1V51.2h15.5v4.3C40,57.7,38,61.3,38,65.2c0,3.9,1.9,7.6,5.1,9.8V80.9z M54.1,80.9H46
		v-4.4c2.6,0.9,5.5,0.9,8,0L54.1,80.9L54.1,80.9z M72.4,79.9c0,0.6-0.4,1-1,1H56.9V75c3.2-2.2,5.1-5.8,5.1-9.8s-1.9-7.5-5.1-9.7
		v-4.3h15.5V79.9z M76.8,47.6c0,0.4-0.4,0.7-0.7,0.7h-0.8H56.9v-8.7H76c0.4,0,0.7,0.4,0.7,0.7V47.6z"/>
	
		<linearGradient id="SVGID_2_" gradientUnits="userSpaceOnUse" x1="50.0856" y1="15.8459" x2="50.0856" y2="84.1937" gradientTransform="matrix(1 0 0 -1 0 100)">
		<stop  offset="0" style="stop-color:#F8972F"/>
		<stop  offset="1" style="stop-color:#F36D24"/>
	</linearGradient>
	<path fill="url(#SVGID_2_)" d="M50.4,64.2c-1.3-0.4-2-0.7-2-1.5c0-0.7,0.6-1.1,1.6-1.1c1.1,0,1.6,0.6,2,1c0.1,0.2,0.4,0.3,0.6,0.3
		c0.4,0,0.8-0.4,0.8-0.8c0-0.1-0.1-0.4-0.1-0.5c-0.6-0.9-1.5-1.4-2.6-1.6v-0.7c0-0.4-0.4-0.7-0.7-0.7c-0.4,0-0.7,0.4-0.7,0.7V60
		c-1.8,0.3-2.6,1.6-2.6,2.7c0,2,1.7,2.6,3.1,3c1.4,0.4,2.1,0.7,2.1,1.6c0,0.4,0,1.5-2.1,1.5c-1.3,0-1.9-0.7-2.1-1.1
		c-0.1-0.2-0.4-0.4-0.7-0.4c-0.4,0-0.8,0.4-0.8,0.8c0,0.1,0.1,0.3,0.1,0.4c0.4,0.8,1.4,1.6,2.9,1.8v0.7c0,0.4,0.4,0.7,0.7,0.7
		s0.7-0.4,0.7-0.7v-0.7c1.8-0.2,2.9-1.3,2.9-3C53.7,65.3,51.9,64.7,50.4,64.2z"/>
	
		<linearGradient id="SVGID_3_" gradientUnits="userSpaceOnUse" x1="50.0434" y1="15.8459" x2="50.0434" y2="84.1937" gradientTransform="matrix(1 0 0 -1 0 100)">
		<stop  offset="0" style="stop-color:#F8972F"/>
		<stop  offset="1" style="stop-color:#F36D24"/>
	</linearGradient>
	<path fill="url(#SVGID_3_)" d="M47.7,34.3c0.1,0,0.3,0,0.4,0h3.7c0.1,0,0.3,0,0.4,0c4.6-0.6,10.8-2.3,13.5-6.2
		c1.3-1.8,1.7-4.1,1.1-6.5s-2.6-4.6-5-5.1c-0.7-0.1-1.4-0.3-2.1-0.3c-4.6,0-7.9,3.6-9.7,10.2c-2.1-7.5-6.3-11.2-11.8-10
		c-2.5,0.6-4.6,2.6-5.1,5s-0.2,4.7,1.1,6.5C36.9,32,43.1,33.5,47.7,34.3z M59.7,19c0.5,0,1,0.1,1.5,0.2c1.4,0.4,2.6,1.5,2.9,2.9
		c0.4,1.6,0.1,3.1-0.7,4.3c-2.3,3.2-8.2,4.5-11.5,5C52.6,26.8,54.5,19,59.7,19z M35.9,22.1c0.4-1.4,1.5-2.6,3-2.9
		c0.5-0.1,1-0.1,1.4-0.1c5.3,0,7.2,7.8,7.8,12.4c-5.8-0.9-9.9-2.6-11.5-5C35.8,25.2,35.5,23.8,35.9,22.1z"/>
</g>
</svg>
