<?xml version="1.0" encoding="utf-8"?>
<!-- Generator: Adobe Illustrator 18.0.0, SVG Export Plug-In . SVG Version: 6.00 Build 0)  -->
<!DOCTYPE svg PUBLIC "-//W3C//DTD SVG 1.1//EN" "http://www.w3.org/Graphics/SVG/1.1/DTD/svg11.dtd">
<svg version="1.1" id="Layer_1" xmlns="http://www.w3.org/2000/svg" xmlns:xlink="http://www.w3.org/1999/xlink" x="0px" y="0px"
	 width="100px" height="100px" viewBox="0 0 100 100" enable-background="new 0 0 100 100" xml:space="preserve">
<g>
	<linearGradient id="SVGID_1_" gradientUnits="userSpaceOnUse" x1="49.9117" y1="85.1477" x2="49.9117" y2="11.0685">
		<stop  offset="0" style="stop-color:#F8972F"/>
		<stop  offset="1" style="stop-color:#F36D24"/>
	</linearGradient>
	<path fill="url(#SVGID_1_)" d="M65.8,50.7c-3.6-2.8-6.6-4.1-6.8-4.2c-0.6-0.3-1.3-0.1-1.7,0.4l-7.5,9l-7.5-9
		c-0.4-0.5-1.1-0.6-1.7-0.4c-0.1,0.1-3.2,1.4-6.8,4.2c-5.4,4.2-11.9,11.5-11.9,22.4c0,0.6,0.4,1.1,0.9,1.3l26.3,10.1c0,0,0,0,0,0
		c0.2,0.1,0.3,0.1,0.5,0.1c0.2,0,0.3,0,0.5-0.1c0,0,0,0,0,0l26.3-10.1c0.5-0.2,0.9-0.7,0.9-1.3C77.7,62.2,71.2,54.9,65.8,50.7z
		 M35.8,52.9c2.2-1.7,4.1-2.8,5.2-3.4l7.5,9.1v22.5l-23.5-9C25.4,62.9,31,56.6,35.8,52.9z M51.3,81.1V58.6l7.5-9.1
		c1.1,0.6,3.1,1.7,5.2,3.4c4.7,3.7,10.4,10,10.7,19.2L51.3,81.1z"/>
	<linearGradient id="SVGID_2_" gradientUnits="userSpaceOnUse" x1="49.9117" y1="85.1477" x2="49.9117" y2="11.0685">
		<stop  offset="0" style="stop-color:#F8972F"/>
		<stop  offset="1" style="stop-color:#F36D24"/>
	</linearGradient>
	<path fill="url(#SVGID_2_)" d="M49.9,46.5c8,0,14.6-6.5,14.6-14.6S58,17.4,49.9,17.4c-8,0-14.6,6.5-14.6,14.6S41.9,46.5,49.9,46.5z
		 M49.9,20.2c6.5,0,11.7,5.3,11.7,11.7c0,6.5-5.3,11.7-11.7,11.7s-11.7-5.3-11.7-11.7C38.2,25.5,43.4,20.2,49.9,20.2z"/>
	<linearGradient id="SVGID_3_" gradientUnits="userSpaceOnUse" x1="76.8093" y1="85.1477" x2="76.8093" y2="11.0685">
		<stop  offset="0" style="stop-color:#F8972F"/>
		<stop  offset="1" style="stop-color:#F36D24"/>
	</linearGradient>
	<path fill="url(#SVGID_3_)" d="M66.5,24.3c0.2,0.3,0.6,0.3,0.7,0c1.3-4.3,5.7-7.3,10.6-6.5c3.8,0.6,7,3.6,7.7,7.4
		c1.2,6-3.4,11.3-9.3,11.3c-3,0-5.7-1.4-7.4-3.6c-0.2-0.3-0.7-0.1-0.7,0.2c-0.1,0.8-0.2,1.5-0.3,2.3c0,0.1,0,0.3,0.1,0.4
		c2.6,2.5,6.4,3.9,10.4,3.2c4.9-0.8,8.8-4.7,9.7-9.6c1.4-7.6-4.4-14.3-11.8-14.3c-4.8,0-8.9,2.8-10.9,6.9c-0.1,0.1,0,0.3,0,0.4
		C65.8,22.9,66.2,23.6,66.5,24.3z"/>
	<linearGradient id="SVGID_4_" gradientUnits="userSpaceOnUse" x1="81.0764" y1="85.1477" x2="81.0764" y2="11.0685">
		<stop  offset="0" style="stop-color:#F8972F"/>
		<stop  offset="1" style="stop-color:#F36D24"/>
	</linearGradient>
	<path fill="url(#SVGID_4_)" d="M89.3,42.2c-3-2.3-5.5-3.4-5.6-3.4c-0.5-0.2-1.2-0.1-1.5,0.4l-6,7.2l-6-7.2c-0.4-0.4-1-0.6-1.5-0.4
		c-0.1,0-1.1,0.5-2.6,1.4c-0.8,1.5-1.8,3-3,4.2c0.3,0.2,0.6,0.3,0.9,0.5c0.3-0.2,0.5-0.4,0.8-0.7c1.7-1.3,3.2-2.2,4.1-2.7l6,7.3v5.6
		c0,0.1,0,0.2,0.1,0.2c0.6,0.8,1.2,1.7,1.8,2.6c0.2,0.3,0.7,0.2,0.7-0.2v-8.2l6-7.3c0.9,0.5,2.4,1.4,4.1,2.7c3.8,3,8.4,8,8.7,15.5
		l-15.7,6c-0.2,0.1-0.3,0.3-0.2,0.5c0.1,0.6,0.3,1.2,0.4,1.8c0,0.2,0.3,0.4,0.5,0.3l16.8-6.4c0.5-0.2,0.8-0.7,0.8-1.2
		C99,51.6,93.7,45.6,89.3,42.2z"/>
	<linearGradient id="SVGID_5_" gradientUnits="userSpaceOnUse" x1="23.0144" y1="85.1477" x2="23.0144" y2="11.0685">
		<stop  offset="0" style="stop-color:#F8972F"/>
		<stop  offset="1" style="stop-color:#F36D24"/>
	</linearGradient>
	<path fill="url(#SVGID_5_)" d="M21.5,38.9c4,0.7,7.8-0.7,10.4-3.2c0.1-0.1,0.1-0.2,0.1-0.4c-0.1-0.8-0.3-1.5-0.3-2.3
		c0-0.4-0.5-0.5-0.7-0.2c-2,2.6-5.4,4.1-9.1,3.5c-3.8-0.6-6.9-3.6-7.6-7.4c-1.2-6,3.4-11.3,9.3-11.3c4.2,0,7.8,2.8,9,6.7
		c0.1,0.4,0.6,0.4,0.7,0c0.3-0.7,0.7-1.4,1.1-2c0.1-0.1,0.1-0.3,0-0.4c-1.9-4.1-6.1-6.9-10.9-6.9c-7.4,0-13.3,6.7-11.8,14.3
		C12.6,34.2,16.6,38,21.5,38.9z"/>
	<linearGradient id="SVGID_6_" gradientUnits="userSpaceOnUse" x1="18.7462" y1="85.1477" x2="18.7462" y2="11.0685">
		<stop  offset="0" style="stop-color:#F8972F"/>
		<stop  offset="1" style="stop-color:#F36D24"/>
	</linearGradient>
	<path fill="url(#SVGID_6_)" d="M19.1,65.7l-15.7-6c0.3-7.4,4.9-12.5,8.7-15.5c1.7-1.3,3.2-2.2,4.1-2.7l6,7.3V57
		c0,0.4,0.5,0.5,0.7,0.2c0.6-0.9,1.2-1.8,1.9-2.7v-5.7l6-7.3c0.9,0.5,2.4,1.4,4.1,2.7c0.3,0.2,0.5,0.4,0.8,0.7
		c0.3-0.2,0.6-0.4,0.9-0.5c-1.2-1.3-2.2-2.7-3-4.2c-1.5-0.9-2.6-1.4-2.6-1.4c-0.5-0.2-1.2-0.1-1.5,0.4l-6,7.2l-6-7.2
		c-0.4-0.4-1-0.6-1.5-0.4c-0.1,0-2.6,1.1-5.6,3.4c-4.4,3.5-9.7,9.5-9.7,18.4c0,0.5,0.3,1,0.8,1.2l16.8,6.4c0.2,0.1,0.5-0.1,0.5-0.3
		c0.1-0.6,0.2-1.2,0.4-1.8C19.4,65.9,19.3,65.7,19.1,65.7z"/>
</g>
</svg>
