<?xml version="1.0" encoding="utf-8"?>
<!-- Generator: Adobe Illustrator 18.1.1, SVG Export Plug-In . SVG Version: 6.00 Build 0)  -->
<!DOCTYPE svg PUBLIC "-//W3C//DTD SVG 1.1//EN" "http://www.w3.org/Graphics/SVG/1.1/DTD/svg11.dtd">
<svg version="1.1" id="Layer_1" xmlns="http://www.w3.org/2000/svg" xmlns:xlink="http://www.w3.org/1999/xlink" x="0px" y="0px"
	 width="100.8px" height="100.8px" viewBox="0 0 100.8 100.8" enable-background="new 0 0 100.8 100.8" xml:space="preserve">
<path fill="#FFFFFF" d="M50.4,15.2C31,15.2,15.2,31,15.2,50.4S31,85.6,50.4,85.6c19.4,0,35.2-15.8,35.2-35.2S69.8,15.2,50.4,15.2z
	 M64.2,43.8c-3.3,31.6-30.8,16.8-30.8,16.8c8.4,0,10-2.3,10-2.3c-5.9,0-6.2-4.7-6.2-4.7c1.8,0.2,2.8-0.5,2.8-0.5
	c-5.9-1.8-5.4-7-5.4-7c0.6,0.6,2.4,0.8,2.4,0.8c-4.6-4.6-1.1-8.6-1.1-8.6c6,6.4,14,6.6,14,6.6c2-13.5,12.9-6,12.9-6
	c1.6-1.2,3.9-1.1,3.9-1.1l-2.4,2.8l2.9-0.5C66.8,41.4,64.2,43.8,64.2,43.8z"/>
</svg>
