<?xml version="1.0" encoding="utf-8"?>
<!-- Generator: Adobe Illustrator 18.0.0, SVG Export Plug-In . SVG Version: 6.00 Build 0)  -->
<!DOCTYPE svg PUBLIC "-//W3C//DTD SVG 1.1//EN" "http://www.w3.org/Graphics/SVG/1.1/DTD/svg11.dtd">
<svg version="1.1" id="Layer_1" xmlns="http://www.w3.org/2000/svg" xmlns:xlink="http://www.w3.org/1999/xlink" x="0px" y="0px"
	 width="100px" height="100px" viewBox="0 0 100 100" enable-background="new 0 0 100 100" xml:space="preserve">
<g>
	
		<linearGradient id="SVGID_1_" gradientUnits="userSpaceOnUse" x1="50" y1="13.8684" x2="50" y2="86.7055" gradientTransform="matrix(1 0 0 -1 0 100)">
		<stop  offset="0" style="stop-color:#F8972F"/>
		<stop  offset="1" style="stop-color:#F36D24"/>
	</linearGradient>
	<path fill="url(#SVGID_1_)" d="M70.8,40c-2.8-1.8-6.5-1.1-8.4,1.7l-2,2.4V24.6c0-2.9-2.3-5.3-5.3-5.3c-0.9,0-1.7,0.2-2.5,0.6v-0.2
		c0-2.9-2.3-5.3-5.3-5.3c-2.9,0-5.3,2.3-5.3,5.3v0.2c-0.8-0.4-1.6-0.6-2.5-0.6c-2.9,0-5.3,2.3-5.3,5.3v0.8c-0.8-0.4-1.6-0.6-2.5-0.6
		c-2.9,0-5.3,2.3-5.3,5.3v23.2c0,4.8,0.6,8.9,1.9,12.2c0.3,0.8,1.1,1.1,1.8,0.8c0.8-0.3,1.1-1.1,0.8-1.8c-1.1-3-1.7-6.8-1.7-11.2
		V30.1c0-1.4,1.1-2.5,2.5-2.5s2.5,1.1,2.5,2.5v17.8c0,0.8,0.6,1.4,1.4,1.4s1.4-0.6,1.4-1.4V30.1v-5.4c0-1.4,1.1-2.5,2.5-2.5
		c1.4,0,2.5,1.1,2.5,2.5v18.4c0,0.8,0.6,1.4,1.4,1.4c0.8,0,1.4-0.6,1.4-1.4V24.6v-4.8c0-1.4,1.1-2.5,2.5-2.5s2.5,1.1,2.5,2.5v4.8V43
		c0,0.8,0.6,1.4,1.4,1.4c0.8,0,1.4-0.6,1.4-1.4V24.6c0-1.4,1.1-2.5,2.5-2.5s2.5,1.1,2.5,2.5v23.2c0,0.6,0.4,1.1,0.9,1.3
		c0.5,0.2,1.1,0,1.5-0.4l4.5-5.4c0-0.1,0.1-0.1,0.1-0.2c1-1.5,3-2,4.5-0.9c1.5,1,2,3,0.9,4.5L58.4,64.9c-0.6,0.9-1.5,1.7-2.6,2.6
		c-0.6,0.5-0.7,1.4-0.2,2c0.3,0.3,0.7,0.5,1.1,0.5c0.3,0,0.6-0.1,0.9-0.3c1.2-1.1,2.3-2.1,3-3.2l11.9-18.1
		C74.4,45.5,73.6,41.8,70.8,40z"/>
	
		<linearGradient id="SVGID_2_" gradientUnits="userSpaceOnUse" x1="40.4416" y1="13.8684" x2="40.4416" y2="86.7055" gradientTransform="matrix(1 0 0 -1 0 100)">
		<stop  offset="0" style="stop-color:#F8972F"/>
		<stop  offset="1" style="stop-color:#F36D24"/>
	</linearGradient>
	<path fill="url(#SVGID_2_)" d="M50.3,67.7h-5.7v-5.6c0-2.3-1.9-4.2-4.2-4.2s-4.2,1.9-4.2,4.2v5.7h-5.7c-2.2,0-4,1.8-4,4s1.8,4,4,4
		h5.7v5.6c0,2.3,1.9,4.2,4.2,4.2s4.2-1.9,4.2-4.2v-5.7h5.7c2.2,0,4-1.8,4-4C54.3,69.5,52.5,67.7,50.3,67.7z M50.3,72.9h-7
		c-0.8,0-1.4,0.6-1.4,1.4v7c0,0.8-0.6,1.4-1.4,1.4s-1.4-0.6-1.4-1.4v-7c0-0.8-0.6-1.4-1.4-1.4h-7c-0.7,0-1.2-0.5-1.2-1.2
		c0-0.7,0.5-1.2,1.2-1.2h7c0.8,0,1.4-0.6,1.4-1.4v-7c0-0.8,0.6-1.4,1.4-1.4s1.4,0.6,1.4,1.4v7c0,0.8,0.6,1.4,1.4,1.4h7
		c0.7,0,1.2,0.5,1.2,1.2S50.9,72.9,50.3,72.9z"/>
</g>
</svg>
