<?xml version="1.0" encoding="utf-8"?>
<!-- Generator: Adobe Illustrator 18.1.1, SVG Export Plug-In . SVG Version: 6.00 Build 0)  -->
<!DOCTYPE svg PUBLIC "-//W3C//DTD SVG 1.1//EN" "http://www.w3.org/Graphics/SVG/1.1/DTD/svg11.dtd">
<svg version="1.1" id="Layer_1" xmlns="http://www.w3.org/2000/svg" xmlns:xlink="http://www.w3.org/1999/xlink" x="0px" y="0px"
	 width="100.8px" height="100.8px" viewBox="0 0 100.8 100.8" enable-background="new 0 0 100.8 100.8" xml:space="preserve">
<g>
	<path fill="#FFFFFF" d="M55.5,49.8l-8.7-4c-0.7-0.3-1.5,0.2-1.5,1v7.9c0,0.8,0.8,1.3,1.5,1l8.7-4C56.3,51.3,56.3,50.1,55.5,49.8z"
		/>
	<path fill="#FFFFFF" d="M50.4,15.2C31,15.2,15.2,31,15.2,50.4S31,85.6,50.4,85.6s35.2-15.8,35.2-35.2S69.8,15.2,50.4,15.2z
		 M69.8,59.9c0,1.9-1.5,3.4-3.4,3.4h-32c-1.9,0-3.4-1.5-3.4-3.4v-19c0-1.9,1.5-3.4,3.4-3.4h32c1.9,0,3.4,1.5,3.4,3.4V59.9z"/>
</g>
</svg>
